<?xml version="1.0" encoding="utf-8"?>
<!-- Generator: Adobe Illustrator 24.1.1, SVG Export Plug-In . SVG Version: 6.00 Build 0)  -->
<svg version="1.1" id="Layer_1" xmlns="http://www.w3.org/2000/svg" xmlns:xlink="http://www.w3.org/1999/xlink" x="0px" y="0px"
	 viewBox="0 0 24 24" style="enable-background:new 0 0 24 24;" xml:space="preserve">
<g>
	<path d="M12.1,8.5c-0.7,0-1.4,0.2-1.4,0.6c0,0.4,1.2,0.8,1.9,0.9c0.2,0.1,0.5,0.1,0.7,0.2l0-0.9C13.3,8.9,13.2,8.5,12.1,8.5z"/>
	<path d="M12,2C6.5,2,2,6.5,2,12s4.5,10,10,10s10-4.5,10-10S17.5,2,12,2z M14.4,18.9V21H9.7v-2.2c-2-0.7-3.2-2.2-3.3-4.1l-0.1-1.1
		h3.9l0.1,0.9c0,0.3,0.1,1,1.7,1c0.9,0,1.4-0.2,1.4-0.6c0-0.2,0-0.7-1.9-1.2c-1.2-0.3-4.9-1.2-4.9-4.6c0-1.8,1.2-3.3,3.1-4V3h4.7
		v2.2c1.7,0.7,2.8,2.2,2.8,4.1l0,1h-3.7c1.6,0.5,3.9,1.7,3.9,4.6C17.5,16.8,16.4,18.2,14.4,18.9z"/>
</g>
</svg>
