<?xml version="1.0" encoding="utf-8"?>
<!-- Generator: Adobe Illustrator 24.0.1, SVG Export Plug-In . SVG Version: 6.00 Build 0)  -->
<svg version="1.1" id="Layer_1" xmlns="http://www.w3.org/2000/svg" xmlns:xlink="http://www.w3.org/1999/xlink" x="0px" y="0px"
	 viewBox="0 0 67.3 67.3" style="enable-background:new 0 0 67.3 67.3;" xml:space="preserve">
<style type="text/css">
	.st0{stroke:#FFFFFF;stroke-width:3.5;stroke-miterlimit:175;}
	.st1{enable-background:new    ;}
	.st2{fill:#FFFFFF;}
	.st3{font-family:'SpaceMono-Italic';}
	.st4{font-size:51.851px;}
</style>
<path d="M0,57.3V10c0-2.8,1-5.1,2.9-7.1C4.9,0.9,7.2,0,10,0h47.3c2.8,0,5.1,1,7.1,2.9c2,2,2.9,4.3,2.9,7.1v47.3c0,2.8-1,5.1-2.9,7.1
	c-2,2-4.3,2.9-7.1,2.9H10c-2.8,0-5.1-1-7.1-2.9C1,62.4,0,60.1,0,57.3z"/>
<path class="st0" d="M4.3,54.3V13c0-2.4,0.9-4.5,2.6-6.2s3.8-2.6,6.2-2.6h41.3c2.4,0,4.5,0.9,6.2,2.6s2.6,3.8,2.6,6.2v41.3
	c0,2.4-0.9,4.5-2.6,6.2s-3.8,2.6-6.2,2.6H13.1c-2.4,0-4.5-0.9-6.2-2.6C5.1,58.8,4.3,56.7,4.3,54.3z"/>
<text transform="matrix(1 0 0 1 -1467.2 765.3)" class="st3" style="font-size:42px;">S</text>
<g class="st1">
	<text transform="matrix(1 0 0 1 -1467.2 765.3)" class="st2 st3" style="font-size:42px;">c</text>
</g>
<g class="st1">
	<text transform="matrix(1 0 0 1 -1467.2 765.3)" class="st2 st3" style="font-size:42px;">h</text>
</g>
<g class="st1">
	<text transform="matrix(1 0 0 1 -1467.2 765.3)" class="st2 st3" style="font-size:42px;">é</text>
</g>
<g class="st1">
	<text transform="matrix(1 0 0 1 -1467.2 765.3)" class="st2 st3" style="font-size:42px;">m</text>
</g>
<g class="st1">
	<text transform="matrix(1 0 0 1 -1467.2 765.3)" class="st2 st3" style="font-size:42px;">a</text>
</g>
<g class="st1">
	<text transform="matrix(1 0 0 1 -1467.2 765.3)" class="st2 st3" style="font-size:23.3333px;">l u m i s y n c . t o o l s</text>
</g>
<g class="st1">
	<text transform="matrix(1 0 0 1 -1467.2 765.3)" class="st2 st3" style="font-size:17.9667px;">alpha.preview.001</text>
</g>
<path d="M8.8,53V14.3c0-1.5,0.5-2.8,1.6-3.9c1.1-1.1,2.4-1.6,3.9-1.6H53c1.5,0,2.8,0.5,3.9,1.6s1.6,2.4,1.6,3.9V53
	c0,1.5-0.5,2.8-1.6,3.9s-2.4,1.6-3.9,1.6H14.3c-1.5,0-2.8-0.5-3.9-1.6C9.4,55.8,8.8,54.5,8.8,53z"/>
<text transform="matrix(1 0 0 1 18.0093 52.1081)" class="st2 st3 st4">S</text>
</svg>
