<?xml version="1.0" encoding="utf-8"?>
<!-- Generator: Adobe Illustrator 24.1.1, SVG Export Plug-In . SVG Version: 6.00 Build 0)  -->
<svg version="1.1" id="Layer_1" xmlns="http://www.w3.org/2000/svg" xmlns:xlink="http://www.w3.org/1999/xlink" x="0px" y="0px"
	 viewBox="0 0 1024 1024" style="enable-background:new 0 0 1024 1024;" xml:space="preserve">
<style type="text/css">
	.st0{fill:none;stroke:#D7E1F2;stroke-width:50;stroke-linecap:round;stroke-miterlimit:10;}
</style>
<path class="st0" d="M584.58,357.04c-18.48,33.42,5.67,74.42,43.86,74.46l83.95,0.1c38.19,0.05,62.33,41.04,43.86,74.46
	L543.47,890.93"/>
<path class="st0" d="M512,40.5c-260.68,0-472,211.32-472,472c0,202.56,127.6,375.32,306.8,442.28c23.14,8.65,49.13-1.09,61.09-22.71
	l190.36-344.32c18.48-33.42-5.67-74.42-43.86-74.46l-83.95-0.1c-38.19-0.05-62.33-41.04-43.86-74.46L617.47,93.44
	c11.98-21.67,38.06-31.41,61.22-22.66C857.11,138.14,984,310.5,984,512.5c0,260.68-211.32,472-472,472"/>
</svg>
