<?xml version="1.0" encoding="utf-8"?>
<!-- Generator: Adobe Illustrator 24.1.1, SVG Export Plug-In . SVG Version: 6.00 Build 0)  -->
<svg version="1.1" id="Layer_1" xmlns="http://www.w3.org/2000/svg" xmlns:xlink="http://www.w3.org/1999/xlink" x="0px" y="0px"
	 viewBox="0 0 1024 1024" style="enable-background:new 0 0 1024 1024;" xml:space="preserve">
<style type="text/css">
	.st0{fill:#D7E1F2;}
</style>
<g>
	<path class="st0" d="M543.45,915.93c-4.09,0-8.24-1.01-12.07-3.13c-12.08-6.68-16.46-21.89-9.78-33.97l212.77-384.86
		c6.28-11.35,1.85-21.24-0.34-24.96c-2.19-3.72-8.69-12.39-21.67-12.4l-83.95-0.1c-26.87-0.03-51.05-13.88-64.69-37.03
		s-14.02-51.02-1.02-74.53c6.68-12.08,21.89-16.46,33.97-9.78c12.08,6.68,16.46,21.89,9.78,33.98c-6.28,11.35-1.85,21.24,0.34,24.96
		c2.19,3.72,8.69,12.39,21.67,12.4l83.95,0.1c26.87,0.03,51.05,13.88,64.69,37.03c13.64,23.15,14.02,51.02,1.02,74.53L565.35,903.02
		C560.79,911.27,552.25,915.93,543.45,915.93z"/>
</g>
<g>
	<path class="st0" d="M512,1009.5c-13.81,0-25-11.19-25-25s11.19-25,25-25c246.48,0,447-200.52,447-447
		c0-184.92-116.2-353.04-289.14-418.33c-11.43-4.31-24.54,0.57-30.51,11.37L448.46,450.82c-6.28,11.35-1.85,21.24,0.34,24.96
		c2.19,3.72,8.69,12.39,21.67,12.4l83.95,0.1c26.87,0.03,51.05,13.87,64.69,37.03c13.64,23.15,14.02,51.01,1.02,74.53L429.76,944.16
		c-8.67,15.69-22.7,27.78-39.49,34.04c-16.86,6.28-35.4,6.28-52.22,0c-46.73-17.46-90.5-41.86-130.09-72.52
		c-39.21-30.36-73.58-66.28-102.18-106.76C46.39,714.83,15,615.79,15,512.5c0-67.08,13.14-132.17,39.07-193.46
		c25.03-59.19,60.87-112.33,106.5-157.97s98.78-81.47,157.97-106.5C379.83,28.64,444.92,15.5,512,15.5c13.81,0,25,11.19,25,25
		s-11.19,25-25,25c-246.48,0-447,200.52-447,447c0,185.59,116.76,353.92,290.55,418.86c11.41,4.26,24.51-0.63,30.46-11.39
		l190.36-344.32c6.28-11.35,1.85-21.24-0.34-24.96s-8.7-12.39-21.67-12.4l-83.95-0.1c-26.87-0.03-51.05-13.88-64.69-37.03
		c-13.64-23.15-14.02-51.01-1.02-74.53L595.59,81.34c8.69-15.73,22.76-27.83,39.6-34.08c16.91-6.28,35.5-6.23,52.33,0.12
		c46.53,17.57,90.1,42.02,129.5,72.69c39.02,30.37,73.23,66.27,101.68,106.68c59.08,83.94,90.3,182.75,90.3,285.74
		c0,67.08-13.14,132.17-39.07,193.46c-25.03,59.19-60.87,112.33-106.5,157.97c-45.64,45.63-98.78,81.47-157.97,106.5
		C644.17,996.36,579.08,1009.5,512,1009.5z"/>
</g>
</svg>
