<?xml version="1.0" encoding="utf-8"?>
<!-- Generator: Adobe Illustrator 24.1.1, SVG Export Plug-In . SVG Version: 6.00 Build 0)  -->
<svg version="1.1" id="Layer_1" xmlns="http://www.w3.org/2000/svg" xmlns:xlink="http://www.w3.org/1999/xlink" x="0px" y="0px"
	 viewBox="0 0 3346 1024" style="enable-background:new 0 0 3346 1024;" xml:space="preserve">
<style type="text/css">
	.st0{fill:none;stroke:#000000;stroke-width:50;stroke-linecap:round;stroke-miterlimit:10;}
	.st1{fill:none;stroke:#D7E1F2;stroke-width:50;stroke-linecap:round;stroke-miterlimit:10;}
</style>
<path class="st0" d="M1238.54,781.03l103.27-192.52c18.41-33.3-5.65-74.15-43.7-74.19l-84.57-0.1
	c-38.05-0.05-62.11-40.89-43.7-74.19l89.04-161.05c8.8-15.92,25.56-25.81,43.76-25.81h545.38"/>
<path class="st1" d="M606,358.57c-18.48,33.42,5.67,74.42,43.86,74.46l83.95,0.1c38.19,0.05,62.33,41.04,43.86,74.46L564.89,892.46"
	/>
<path class="st1" d="M533.42,42.03c-260.68,0-472,211.32-472,472c0,202.56,127.6,375.32,306.8,442.28
	c23.14,8.65,49.13-1.09,61.09-22.71l190.36-344.32c18.48-33.42-5.67-74.42-43.86-74.46l-83.95-0.1
	c-38.19-0.05-62.33-41.04-43.86-74.46L638.89,94.97c11.98-21.67,38.06-31.41,61.22-22.66c178.42,67.36,305.31,239.72,305.31,441.72
	c0,260.68-211.32,472-472,472"/>
<path class="st0" d="M1879.12,780.91l103.34-192.69c18.42-33.32-5.68-74.19-43.76-74.19h-116.28"/>
<path class="st0" d="M1703.42,514.03h-181.56c-18.2,0-34.95,9.88-43.76,25.81l-89,166.7c-18.41,33.3,5.64,74.14,43.68,74.19
	l205.96-0.71c18.13-0.06,34.81-9.94,43.59-25.81l260.46-475.07c8.78-16.01,25.58-25.96,43.84-25.96h1286.03"/>
<path class="st0" d="M2561.89,514.03h-68.53c-18.26,0-35.07,9.95-43.84,25.96l-117.44,214.21c-8.77,15.87-25.45,25.75-43.59,25.81
	l-205.96,0.71c-38.05-0.06-62.09-40.9-43.68-74.19l89-166.7c8.8-15.92,25.56-25.81,43.76-25.81h181.56l-72.26,135.8
	c-8.68,16.32-25.66,26.51-44.14,26.51h-181.28"/>
<path class="st0" d="M2913.63,514.03h128.74c37.73,0,61.86,40.18,44.14,73.49l-88.47,166.25c-8.68,16.32-25.66,26.51-44.14,26.51
	h-181.96l41.21-77.43c8.68-16.31,25.66-26.51,44.14-26.51h181.95"/>
<line class="st0" x1="2212.27" y1="388.01" x2="2396" y2="388.01"/>
<path class="st0" d="M2661.91,781.03l105.93-192.54c18.33-33.32-5.77-74.1-43.81-74.1h-53.95c-18.26,0-35.07,9.95-43.84,25.96
	l-60.58,110.24c-8.77,15.87-25.45,25.75-43.59,25.81"/>
</svg>
